<svg width="305" height="306" viewBox="0 0 305 306" fill="none" xmlns="http://www.w3.org/2000/svg">
<path d="M304.478 0L140.978 0L0 0L0 305.285L0.267414 290.097C0.534353 243.599 1.47754 243.285 5.03895 229.575C7.50813 222.228 11.1285 213.964 13.0638 211.209C14.9991 208.454 17.3515 205.416 18.3025 204.448C19.2534 203.479 21.5224 200.825 23.3576 198.537C25.1928 196.233 30.4482 191.358 35.0362 187.685C39.6242 184.012 46.3811 180.005 50.0515 178.77C53.7219 177.551 57.4757 175.981 58.3933 175.297C59.3109 174.612 64.9333 173.21 70.9061 172.191C76.8788 171.173 86.2551 170.338 91.7607 170.338C97.2663 170.338 105.525 169.069 110.113 167.517C114.701 165.964 122.959 162.057 128.465 158.835C133.97 155.613 142.262 149.168 146.884 144.527C151.505 139.885 157.378 132.322 159.913 127.731C162.449 123.139 165.586 115.626 166.887 111.035C168.189 106.444 170.074 94.0554 171.058 83.487C172.41 69.0953 174.095 61.2484 177.782 52.1826C180.484 45.521 183.789 40.8 184.355 40.0782C184.978 39.2852 185.028 39.2671 186.023 37.5739C186.726 36.3791 188.593 32.6319 191.729 29.6434C194.849 26.6549 200.371 21.596 203.975 18.3738C207.579 15.1515 212.701 11.4951 215.37 10.243C218.039 8.97409 222.094 7.00399 224.396 5.83529C226.682 4.68329 232.504 2.89685 237.326 1.87841C242.147 0.843274 259.215 0.0084877 304.478 0.0084877V0Z" fill="#EEEEEE"/>
<circle cx="83.4766" cy="83.2832" r="65" transform="rotate(-90 83.4766 83.2832)" fill="white"/>
<path d="M109.477 87.2832C111.686 87.2832 113.477 85.4923 113.477 83.2832C113.477 81.0741 111.686 79.2832 109.477 79.2832L109.477 83.2832L109.477 87.2832ZM54.6481 80.4548C53.086 82.0169 53.086 84.5495 54.6481 86.1116L80.104 111.567C81.6661 113.13 84.1987 113.13 85.7608 111.567C87.3229 110.005 87.3229 107.473 85.7608 105.911L63.1334 83.2832L85.7608 60.6558C87.3229 59.0937 87.3229 56.561 85.7608 54.9989C84.1987 53.4368 81.6661 53.4368 80.104 54.9989L54.6481 80.4548ZM109.477 83.2832L109.477 79.2832L57.4766 79.2832L57.4766 83.2832L57.4766 87.2832L109.477 87.2832L109.477 83.2832Z" fill="#EEEEEE"/>
</svg>
