<svg width="306" height="305" viewBox="0 0 306 305" fill="none" xmlns="http://www.w3.org/2000/svg">
<path d="M305.285 304.478V140.978V0H0L15.1885 0.267414C61.6861 0.534353 62 1.47754 75.7106 5.03895C83.0567 7.50813 91.3211 11.1285 94.0759 13.0638C96.8307 14.9991 99.8693 17.3515 100.838 18.3025C101.806 19.2534 104.461 21.5224 106.748 23.3576C109.052 25.1928 113.927 30.4482 117.6 35.0362C121.273 39.6242 125.28 46.3811 126.516 50.0515C127.734 53.7219 129.304 57.4757 129.988 58.3933C130.673 59.3109 132.075 64.9333 133.094 70.9061C134.112 76.8788 134.947 86.2551 134.947 91.7607C134.947 97.2663 136.216 105.525 137.769 110.113C139.321 114.701 143.228 122.959 146.45 128.465C149.673 133.97 156.117 142.262 160.759 146.884C165.4 151.505 172.963 157.378 177.554 159.913C182.146 162.449 189.659 165.586 194.25 166.887C198.842 168.189 211.23 170.074 221.798 171.058C236.19 172.41 244.037 174.095 253.103 177.782C259.764 180.484 264.485 183.789 265.207 184.355C266 184.978 266.018 185.028 267.711 186.023C268.906 186.726 272.653 188.593 275.642 191.729C278.63 194.849 283.689 200.371 286.911 203.975C290.134 207.579 293.79 212.701 295.042 215.37C296.311 218.039 298.281 222.094 299.45 224.396C300.602 226.682 302.388 232.504 303.407 237.326C304.442 242.147 305.277 259.215 305.277 304.478H305.285Z" fill="#EEEEEE"/>
<circle cx="231" cy="74.4775" r="74" fill="white"/>
<path d="M261 78.4775C263.209 78.4775 265 76.6867 265 74.4775C265 72.2684 263.209 70.4775 261 70.4775V74.4775V78.4775ZM198.172 71.6491C196.609 73.2112 196.609 75.7439 198.172 77.306L223.627 102.762C225.19 104.324 227.722 104.324 229.284 102.762C230.846 101.2 230.846 98.6671 229.284 97.105L206.657 74.4775L229.284 51.8501C230.846 50.288 230.846 47.7554 229.284 46.1933C227.722 44.6312 225.19 44.6312 223.627 46.1933L198.172 71.6491ZM261 74.4775V70.4775L201 70.4775V74.4775V78.4775L261 78.4775V74.4775Z" fill="#EEEEEE"/>
</svg>
