<svg width="345" height="341" viewBox="0 0 345 341" fill="none" xmlns="http://www.w3.org/2000/svg">
<path d="M0 0.00195312H344.5C344.5 0.00195312 247.5 0.00192261 233.5 34.002C229.406 43.9453 227.452 55.0144 227.039 66.5585C224.717 131.475 193.913 203.597 129.6 212.727L69.3544 221.28C39.0885 225.577 15.1111 249.017 10.1293 279.178L0 340.502V0.00195312Z" fill="#EEEEEE"/>
<circle cx="100" cy="100" r="99.5" transform="rotate(-180 100 100)" fill="white" stroke="#EEEEEE"/>
<path d="M140 105C142.761 105 145 102.761 145 100C145 97.2386 142.761 95 140 95V100V105ZM56.4645 96.4645C54.5118 98.4171 54.5118 101.583 56.4645 103.536L88.2843 135.355C90.2369 137.308 93.4027 137.308 95.3553 135.355C97.308 133.403 97.308 130.237 95.3553 128.284L67.0711 100L95.3553 71.7157C97.308 69.7631 97.308 66.5973 95.3553 64.6447C93.4027 62.692 90.2369 62.692 88.2843 64.6447L56.4645 96.4645ZM140 100V95L60 95V100V105L140 105V100Z" fill="#EEEEEE"/>
</svg>
