<svg width="345" height="341" viewBox="0 0 345 341" fill="none" xmlns="http://www.w3.org/2000/svg">
<path d="M344.5 0.00195312H0C0 0.00195312 97 0.00192261 111 34.002C115.094 43.9453 117.048 55.0144 117.461 66.5585C119.783 131.475 150.587 203.597 214.9 212.727L275.146 221.28C305.412 225.577 329.389 249.017 334.371 279.178L344.5 340.502V0.00195312Z" fill="#EEEEEE"/>
<circle cx="100" cy="100" r="99.5" transform="matrix(1 0 0 -1 144.5 200)" fill="white" stroke="#EEEEEE"/>
<path d="M204.5 105C201.739 105 199.5 102.761 199.5 100C199.5 97.2386 201.739 95 204.5 95V100V105ZM288.036 96.4645C289.988 98.4171 289.988 101.583 288.036 103.536L256.216 135.355C254.263 137.308 251.097 137.308 249.145 135.355C247.192 133.403 247.192 130.237 249.145 128.284L277.429 100L249.145 71.7157C247.192 69.7631 247.192 66.5973 249.145 64.6447C251.097 62.692 254.263 62.692 256.216 64.6447L288.036 96.4645ZM204.5 100V95L284.5 95V100V105L204.5 105V100Z" fill="#EEEEEE"/>
</svg>
