<svg width="3700" height="3700" viewBox="0 0 3700 3700" fill="none" xmlns="http://www.w3.org/2000/svg">
<g filter="url(#filter0_fn_198_1397)">
<circle cx="1849.62" cy="1849.62" r="1514.62" fill="white"/>
</g>
<path d="M1854.32 1904.97C1842.7 1932.3 1803.24 1998.07 1738.41 2042.55C1674.83 2086.17 1547.45 2165.75 1454.55 2215.77M1272.86 2370.74C1260.72 2400.13 1257.16 2474.03 1256.89 2507.31M1272.86 2370.74L1211.37 2385.12M1272.86 2370.74C1281.3 2350.31 1289.69 2326.29 1310.06 2302.67M1310.06 2302.67C1326.31 2283.83 1350.2 2265.25 1387.84 2248.94C1406.12 2241.02 1429.03 2229.51 1454.55 2215.77M1310.06 2302.67C1274.5 2298.62 1199.23 2292.94 1182.62 2302.67M1182.62 2302.67C1166.01 2312.4 1144.82 2333.47 1136.3 2342.79M1182.62 2302.67L1161.05 2265.32M1454.55 2215.77L1211.37 2179.56M1211.37 2179.56L1145.76 2097.71M1211.37 2179.56L1155.88 2220.91" stroke="black" stroke-width="5"/>
<path d="M1902.31 1884.42C1918.82 1891.69 1968.39 1894.46 2018.32 1893.67C2080.73 1892.68 2153.93 1869.56 2175.72 1853.71C2193.47 1840.81 2192.32 1840.77 2193.47 1839.7M2251.01 1718.98C2264.48 1684.91 2273.8 1630.82 2276.77 1608.03M2251.01 1718.98L2313.42 1650.63M2251.01 1718.98C2235.01 1759.47 2215.5 1819.16 2193.47 1839.7M2193.47 1839.7C2206.88 1827.42 2225.65 1810.52 2251.01 1796.25M2251.01 1796.25C2282.71 1778.42 2313.42 1773.47 2328.28 1750.68M2251.01 1796.25L2322.34 1809.13M2328.28 1750.68C2340.17 1732.46 2339.84 1711.39 2338.19 1703.13M2328.28 1750.68L2359.98 1763.56" stroke="black" stroke-width="5"/>
<path d="M2017.44 1579.19C2020.94 1572.81 2025.64 1562.61 2026.08 1555.24M2024.75 1423.85C2020.68 1399.38 2004.59 1374.65 2004.59 1374.65M2024.75 1423.85L2048.14 1393.2M2024.75 1423.85C2027.26 1438.9 2028.23 1459.89 2028.31 1481.93M2129.6 1462.56L2089.28 1498.66M2026.08 1555.24L2089.28 1498.66M2026.08 1555.24C2027.32 1534.47 2028.41 1507.49 2028.31 1481.93M2089.28 1435.94V1498.66M2062.66 1452.88L2028.31 1481.93" stroke="black" stroke-width="5"/>
<circle cx="1860.95" cy="1851.21" r="975.252" stroke="black" stroke-width="5"/>
<circle cx="1860.95" cy="1851.21" r="975.252" fill="white" stroke="black" stroke-width="5"/>
<circle cx="1860.97" cy="1851.21" r="538.401" stroke="black" stroke-width="5"/>
<circle cx="1860.95" cy="1851.21" r="335.233" stroke="black" stroke-width="5"/>
<circle cx="1860.95" cy="1851.21" r="264.15" stroke="black" stroke-width="5"/>
<circle cx="1860.96" cy="1851.21" r="54.3755" stroke="black" stroke-width="5"/>
<circle cx="2320.51" cy="744.559" r="132.997" stroke="black" stroke-width="5"/>
<circle cx="135.497" cy="135.497" r="132.997" transform="matrix(1 0 0 -1 2185.01 3120.78)" stroke="black" stroke-width="5"/>
<circle cx="1387.72" cy="744.559" r="132.997" stroke="black" stroke-width="5"/>
<circle cx="135.497" cy="135.497" r="132.997" transform="matrix(1 0 0 -1 1252.22 3120.78)" stroke="black" stroke-width="5"/>
<circle cx="747.723" cy="1405.4" r="132.997" stroke="black" stroke-width="5"/>
<circle cx="135.497" cy="135.497" r="132.997" transform="matrix(1 0 0 -1 612.227 2459.94)" stroke="black" stroke-width="5"/>
<circle cx="2974.2" cy="1405.4" r="132.997" stroke="black" stroke-width="5"/>
<circle cx="135.497" cy="135.497" r="132.997" transform="matrix(1 0 0 -1 2838.7 2459.94)" stroke="black" stroke-width="5"/>
<rect x="1542.55" y="682.491" width="627.339" height="107.135" stroke="black" stroke-width="5"/>
<rect x="679.918" y="2164.87" width="627.339" height="107.135" transform="rotate(-90 679.918 2164.87)" stroke="black" stroke-width="5"/>
<rect x="679.918" y="2164.87" width="627.339" height="107.135" transform="rotate(-90 679.918 2164.87)" stroke="black" stroke-width="5"/>
<rect x="2920.63" y="2164.87" width="627.339" height="107.135" transform="rotate(-90 2920.63 2164.87)" stroke="black" stroke-width="5"/>
<rect x="797.161" y="1247.9" width="627.339" height="107.135" transform="rotate(-45 797.161 1247.9)" stroke="black" stroke-width="5"/>
<rect x="3.53553" y="1.49012e-07" width="627.339" height="107.135" transform="matrix(0.707107 0.707107 0.707107 -0.707107 794.661 2468.9)" stroke="black" stroke-width="5"/>
<rect x="1.33955" y="-3.27194" width="416.536" height="58.175" transform="matrix(0.922298 -0.386479 -0.386479 -0.922298 1263.1 1016.18)" stroke="black" stroke-width="5"/>
<rect x="1265.6" y="2701.56" width="416.536" height="58.175" transform="rotate(22.7356 1265.6 2701.56)" stroke="black" stroke-width="5"/>
<rect x="-1.34487" y="-3.26976" width="416.536" height="58.175" transform="matrix(0.384977 -0.922926 -0.922926 -0.384977 848.097 1677.51)" stroke="black" stroke-width="5"/>
<rect x="850.597" y="2040.23" width="416.536" height="58.175" transform="rotate(67.3577 850.597 2040.23)" stroke="black" stroke-width="5"/>
<rect x="2861.04" y="1680.01" width="416.536" height="58.175" transform="rotate(-112.642 2861.04 1680.01)" stroke="black" stroke-width="5"/>
<rect x="1.34487" y="3.26976" width="416.536" height="58.175" transform="matrix(-0.384977 0.922926 0.922926 0.384977 2858.54 2037.73)" stroke="black" stroke-width="5"/>
<rect x="2430.23" y="1018.68" width="416.536" height="58.175" transform="rotate(-157.264 2430.23 1018.68)" stroke="black" stroke-width="5"/>
<rect x="-1.33955" y="3.27194" width="416.536" height="58.175" transform="matrix(-0.922298 0.386479 0.386479 0.922298 2427.73 2699.06)" stroke="black" stroke-width="5"/>
<rect x="-3.53553" y="-1.49012e-07" width="627.339" height="107.135" transform="matrix(-0.707107 -0.707107 -0.707107 0.707107 2911.97 1245.4)" stroke="black" stroke-width="5"/>
<rect x="2914.47" y="2471.4" width="627.339" height="107.135" transform="rotate(135 2914.47 2471.4)" stroke="black" stroke-width="5"/>
<rect x="1542.55" y="2931.71" width="627.339" height="107.135" stroke="black" stroke-width="5"/>
<path d="M1813.74 1827.54L1456.54 1508.39" stroke="black" stroke-width="5" stroke-dasharray="7 7"/>
<path d="M1888.45 1803.19L2019.04 1576.64" stroke="black" stroke-width="5" stroke-dasharray="7 7"/>
<path d="M1459.16 1511.45C1442.34 1493.17 1394.69 1447.01 1371.87 1392.61C1363.16 1371.83 1357.52 1343.62 1353.74 1314.24M1345.09 1188.98C1346.45 1216.1 1347.64 1266.7 1353.74 1314.24M1277.23 1236.23L1353.74 1314.24" stroke="black" stroke-width="5"/>
<path d="M1280.32 1327.79L1369.82 1389.52" stroke="black" stroke-width="5"/>
<path d="M1439.16 1490.82C1409.4 1481.57 1354.29 1463.14 1313.84 1437.75M1195.95 1235.21C1201.78 1252.99 1211.54 1280.04 1223.3 1308.17M1151.72 1270.18L1223.3 1308.17M1223.3 1308.17C1230.12 1324.48 1237.6 1341.15 1245.39 1356.59M1313.84 1437.75C1298.83 1428.32 1285.92 1418.29 1277.23 1408.04C1266.68 1395.6 1255.77 1377.19 1245.39 1356.59M1313.84 1437.75H1208.3M1208.3 1437.75L1113.65 1483.14M1208.3 1437.75L1185.67 1402.9M1171.26 1352.49L1245.39 1356.59" stroke="black" stroke-width="5"/>
<defs>
<filter id="filter0_fn_198_1397" x="35" y="35" width="3629.23" height="3629.23" filterUnits="userSpaceOnUse" color-interpolation-filters="sRGB">
<feFlood flood-opacity="0" result="BackgroundImageFix"/>
<feBlend mode="normal" in="SourceGraphic" in2="BackgroundImageFix" result="shape"/>
<feGaussianBlur stdDeviation="150" result="effect1_foregroundBlur_198_1397"/>
<feTurbulence type="fractalNoise" baseFrequency="10 10" stitchTiles="stitch" numOctaves="3" result="noise" seed="7216" />
<feColorMatrix in="noise" type="luminanceToAlpha" result="alphaNoise" />
<feComponentTransfer in="alphaNoise" result="coloredNoise1">
<feFuncA type="discrete" tableValues="1 1 1 1 1 1 1 1 1 1 1 1 1 1 1 1 1 1 1 1 1 1 1 1 1 1 1 1 1 1 1 1 1 1 1 1 1 1 1 1 1 1 1 1 1 1 1 1 1 1 1 0 0 0 0 0 0 0 0 0 0 0 0 0 0 0 0 0 0 0 0 0 0 0 0 0 0 0 0 0 0 0 0 0 0 0 0 0 0 0 0 0 0 0 0 0 0 0 0 0 "/>
</feComponentTransfer>
<feComposite operator="in" in2="effect1_foregroundBlur_198_1397" in="coloredNoise1" result="noise1Clipped" />
<feFlood flood-color="rgba(0, 0, 0, 0.1)" result="color1Flood" />
<feComposite operator="in" in2="noise1Clipped" in="color1Flood" result="color1" />
<feMerge result="effect2_noise_198_1397">
<feMergeNode in="effect1_foregroundBlur_198_1397" />
<feMergeNode in="color1" />
</feMerge>
</filter>
</defs>
</svg>
