<svg width="1534" height="5335" viewBox="0 0 1534 5335" fill="none" xmlns="http://www.w3.org/2000/svg">
<g filter="url(#filter0_g_198_1319)">
<path d="M1465.94 1932.28L22.4001 1932.28L22.4001 1757.48L1465.94 1757.48L1465.94 1932.28Z" fill="#FFFEFE"/>
</g>
<g filter="url(#filter1_g_198_1319)">
<path d="M1465.94 1167.08L22.4001 1167.08L22.4001 997.92L1155.81 211.301L1155.81 197.204L22.4001 197.204L22.4001 22.4001L1465.94 22.4001L1465.94 191.565L329.717 981.003L329.717 995.1L1465.94 995.1L1465.94 1167.08Z" fill="#FFFEFE"/>
</g>
<g filter="url(#filter2_g_198_1319)">
<path d="M1046.8 3624.89L1046.8 3450.09C1097.08 3439.75 1141.25 3421.66 1179.31 3395.82C1217.37 3370.44 1249.32 3339.43 1275.17 3302.77C1301.48 3266.59 1321.22 3226.42 1334.38 3182.24C1347.53 3138.07 1354.11 3092.02 1354.11 3044.09C1354.11 2956.69 1332.03 2877.51 1287.86 2806.56C1243.68 2736.07 1178.6 2679.92 1092.61 2638.1C1006.62 2596.75 901.125 2576.07 776.131 2576.07C651.137 2576.07 545.644 2596.74 459.651 2638.1C373.659 2679.92 308.577 2736.07 264.406 2806.56C220.235 2877.51 198.15 2956.69 198.15 3044.09C198.15 3092.02 204.729 3138.07 217.886 3182.24C231.043 3226.42 250.544 3266.59 276.389 3302.77C302.704 3339.43 334.892 3370.44 372.954 3395.82C411.486 3421.66 455.657 3439.75 505.467 3450.09L505.467 3624.89C431.692 3611.74 365.671 3587.77 307.403 3553C249.135 3518.23 199.56 3474.99 158.678 3423.31C118.266 3371.62 87.4878 3313.58 66.3421 3249.21C45.1965 3185.3 34.6237 3116.93 34.6237 3044.09C34.6237 2920.98 64.6975 2811.49 124.845 2715.63C184.993 2619.77 270.515 2544.35 381.412 2489.37C492.31 2434.39 623.882 2406.9 776.131 2406.9C928.38 2406.9 1059.95 2434.39 1170.85 2489.37C1281.75 2544.35 1367.27 2619.77 1427.42 2715.63C1487.56 2811.49 1517.64 2920.98 1517.64 3044.09C1517.64 3116.93 1507.07 3185.3 1485.92 3249.21C1464.77 3313.58 1433.76 3371.62 1392.88 3423.31C1352.47 3474.99 1303.13 3518.23 1244.86 3553C1187.06 3587.77 1121.04 3611.74 1046.8 3624.89Z" fill="#FFFEFE"/>
</g>
<path d="M22.4001 4277.54L22.4001 4094.28L1465.94 4624.33L1465.94 4804.77L22.4001 5334.82L22.4001 5151.56L1237.57 4720.19L1237.57 4708.91L22.4001 4277.54ZM586.284 4345.21L586.284 5083.9L431.216 5083.9L431.216 4345.21L586.284 4345.21Z" fill="#FFFEFE"/>
<defs>
<filter id="filter0_g_198_1319" x="0.000391006" y="1735.08" width="1488.34" height="219.604" filterUnits="userSpaceOnUse" color-interpolation-filters="sRGB">
<feFlood flood-opacity="0" result="BackgroundImageFix"/>
<feBlend mode="normal" in="SourceGraphic" in2="BackgroundImageFix" result="shape"/>
<feTurbulence type="fractalNoise" baseFrequency="0.19230769574642181 0.19230769574642181" numOctaves="3" seed="2372" />
<feDisplacementMap in="shape" scale="44.799999237060547" xChannelSelector="R" yChannelSelector="G" result="displacedImage" width="100%" height="100%" />
<feMerge result="effect1_texture_198_1319">
<feMergeNode in="displacedImage"/>
</feMerge>
</filter>
<filter id="filter1_g_198_1319" x="0.000391006" y="0.000146866" width="1488.34" height="1189.48" filterUnits="userSpaceOnUse" color-interpolation-filters="sRGB">
<feFlood flood-opacity="0" result="BackgroundImageFix"/>
<feBlend mode="normal" in="SourceGraphic" in2="BackgroundImageFix" result="shape"/>
<feTurbulence type="fractalNoise" baseFrequency="0.19230769574642181 0.19230769574642181" numOctaves="3" seed="2372" />
<feDisplacementMap in="shape" scale="44.799999237060547" xChannelSelector="R" yChannelSelector="G" result="displacedImage" width="100%" height="100%" />
<feMerge result="effect1_texture_198_1319">
<feMergeNode in="displacedImage"/>
</feMerge>
</filter>
<filter id="filter2_g_198_1319" x="19.224" y="2391.5" width="1513.81" height="1248.79" filterUnits="userSpaceOnUse" color-interpolation-filters="sRGB">
<feFlood flood-opacity="0" result="BackgroundImageFix"/>
<feBlend mode="normal" in="SourceGraphic" in2="BackgroundImageFix" result="shape"/>
<feTurbulence type="fractalNoise" baseFrequency="0.14925374090671539 0.14925374090671539" numOctaves="3" seed="7099" />
<feDisplacementMap in="shape" scale="30.799999237060547" xChannelSelector="R" yChannelSelector="G" result="displacedImage" width="100%" height="100%" />
<feMerge result="effect1_texture_198_1319">
<feMergeNode in="displacedImage"/>
</feMerge>
</filter>
</defs>
</svg>
