<svg width="150" height="30" viewBox="0 0 150 30" fill="none" xmlns="http://www.w3.org/2000/svg">
<path d="M45 7.50001C44.3125 7.50001 43.7242 7.25543 43.235 6.76626C42.7458 6.27709 42.5008 5.68834 42.5 5.00001C42.4992 4.31168 42.7442 3.72334 43.235 3.23501C43.7258 2.74668 44.3142 2.50168 45 2.50001C45.6858 2.49834 46.2746 2.74334 46.7663 3.23501C47.2579 3.72668 47.5025 4.31501 47.5 5.00001C47.4975 5.68501 47.2529 6.27376 46.7663 6.76626C46.2796 7.25876 45.6908 7.50334 45 7.50001ZM41.25 27.5V11.25C40 11.1458 38.7292 10.9896 37.4375 10.7813C36.1458 10.5729 34.9167 10.3125 33.75 10L34.375 7.50001C36 7.93751 37.7292 8.25543 39.5625 8.45376C41.3958 8.65209 43.2083 8.75084 45 8.75001C46.7917 8.74918 47.7098 9 50.2098 6.76626C52 5.5 52 5.49999 54 4.5L55.3205 6.76626C53.8205 7.76626 54 7.5 52.2343 8.75001C50.4686 10 50.199 10 48.75 11.25V27.5H46.25V20H43.75V27.5H41.25Z" fill="black"/>
<path d="M15 7.50001C14.3125 7.50001 13.7242 7.25543 13.235 6.76626C12.7458 6.27709 12.5008 5.68834 12.5 5.00001C12.4992 4.31168 12.7442 3.72334 13.235 3.23501C13.7258 2.74668 14.3142 2.50168 15 2.50001C15.6858 2.49834 16.2746 2.74334 16.7663 3.23501C17.2579 3.72668 17.5025 4.31501 17.5 5.00001C17.4975 5.68501 17.2529 6.27376 16.7663 6.76626C16.2796 7.25876 15.6908 7.50334 15 7.50001ZM11.25 27.5V11.25C10 11.1458 8.72917 10.9896 7.4375 10.7813C6.14583 10.5729 4.91667 10.3125 3.75 10L4.375 7.50001C6 7.93751 7.72917 8.25543 9.5625 8.45376C11.3958 8.65209 13.2083 8.75084 15 8.75001C16.7917 8.74918 17 8.23374 19.5 6C21 5.00001 21.5 4.5 22.5 3.5L25 4C24 5.5 23 6.5 21.5245 7.98375C20.0491 9.4675 20 10 18.75 11.25V27.5H16.25V20H13.75V27.5H11.25Z" fill="black"/>
<path d="M75 7.50001C74.3125 7.50001 73.7242 7.25543 73.235 6.76626C72.7458 6.27709 72.5008 5.68834 72.5 5.00001C72.4992 4.31168 72.7442 3.72334 73.235 3.23501C73.7258 2.74668 74.3142 2.50168 75 2.50001C75.6858 2.49834 76.2746 2.74334 76.7663 3.23501C77.2579 3.72668 77.5025 4.31501 77.5 5.00001C77.4975 5.68501 77.2529 6.27376 76.7663 6.76626C76.2796 7.25876 75.6908 7.50334 75 7.50001ZM71.25 27.5V11.25C70 11.1458 68.7292 10.9896 67.4375 10.7813C66.1458 10.5729 64.9167 10.3125 63.75 10L64.375 7.50001C66 7.93751 67.7292 8.25543 69.5625 8.45376C71.3958 8.65209 73.2083 8.75084 75 8.75001C76.7917 8.74918 78.6042 8.65001 80.4375 8.45251C82.2708 8.25501 84 7.93751 85.625 7.50001L86.25 10C85.0833 10.3125 83.8542 10.5729 82.5625 10.7813C81.2708 10.9896 80 11.1458 78.75 11.25V27.5H76.25V20H73.75V27.5H71.25Z" fill="black"/>
<path d="M105 7.50001C104.313 7.50001 103.724 7.25543 103.235 6.76626C102.746 6.27709 102.501 5.68834 102.5 5.00001C102.499 4.31168 102.744 3.72334 103.235 3.23501C103.726 2.74668 104.314 2.50168 105 2.50001C105.686 2.49834 106.275 2.74334 106.766 3.23501C107.258 3.72668 107.503 4.31501 107.5 5.00001C107.498 5.68501 107.253 6.27376 106.766 6.76626C106.28 7.25876 105.691 7.50334 105 7.50001ZM101.25 27.5V11.25C100 11.1458 98.7292 10.9896 97.4375 10.7813C96.1458 10.5729 94.9167 10.3125 93.75 10L94.375 7.50001C96 7.93751 97.7292 8.25543 99.5625 8.45376C101.396 8.65209 103.208 8.75084 105 8.75001C106.792 8.74918 108.604 8.65001 110.438 8.45251C112.271 8.25501 114 12.5 115.5 15L114 16.5C114 16.5 113.5 16 111.5 13.5C109.5 11 110 11.1458 108.75 11.25V27.5H106.25V20H103.75V27.5H101.25Z" fill="black"/>
<path d="M135 7.50001C134.313 7.50001 133.724 7.25543 133.235 6.76626C132.746 6.27709 132.501 5.68834 132.5 5.00001C132.499 4.31168 132.744 3.72334 133.235 3.23501C133.726 2.74668 134.314 2.50168 135 2.50001C135.686 2.49834 136.275 2.74334 136.766 3.23501C137.258 3.72668 137.503 4.31501 137.5 5.00001C137.498 5.68501 137.253 6.27376 136.766 6.76626C136.28 7.25876 135.691 7.50334 135 7.50001ZM131.25 27.5V11.25C130 11.1458 128.729 10.9896 127.438 10.7813C126.146 10.5729 124.917 10.3125 123.75 10L124.375 7.50001C126 7.93751 127.729 8.25543 129.563 8.45376C131.396 8.65209 133.208 8.75084 135 8.75001C136.792 8.74918 138.604 8.65001 140.438 8.45251C142.271 8.25501 143 13.5 144.5 16L142.5 17C142.5 17 142.437 17.5625 141.437 14.5313C140.438 11.5 140 11.1458 138.75 11.25V27.5H136.25V20H133.75V27.5H131.25Z" fill="black"/>
</svg>
