<svg width="30" height="30" viewBox="0 0 30 30" fill="none" xmlns="http://www.w3.org/2000/svg">
<path d="M15 7.50001C14.3125 7.50001 13.7242 7.25543 13.235 6.76626C12.7458 6.27709 12.5008 5.68834 12.5 5.00001C12.4992 4.31168 12.7442 3.72334 13.235 3.23501C13.7258 2.74668 14.3142 2.50168 15 2.50001C15.6858 2.49834 16.2746 2.74334 16.7663 3.23501C17.2579 3.72668 17.5025 4.31501 17.5 5.00001C17.4975 5.68501 17.2529 6.27376 16.7663 6.76626C16.2796 7.25876 15.6908 7.50334 15 7.50001ZM11.25 27.5V11.25C10 11.1458 8.72917 10.9896 7.4375 10.7813C6.14583 10.5729 4.91667 10.3125 3.75 10L4.375 7.50001C6 7.93751 7.72917 8.25543 9.5625 8.45376C11.3958 8.65209 13.2083 8.75084 15 8.75001C16.7917 8.74918 18.6042 8.65001 20.4375 8.45251C22.2708 8.25501 24 7.93751 25.625 7.50001L26.25 10C25.0833 10.3125 23.8542 10.5729 22.5625 10.7813C21.2708 10.9896 20 11.1458 18.75 11.25V27.5H16.25V20H13.75V27.5H11.25Z" fill="black"/>
</svg>
