<svg width="1190" height="1684" viewBox="0 0 1190 1684" fill="none" xmlns="http://www.w3.org/2000/svg">
<g clip-path="url(#clip0_127_280)">
<mask id="path-1-inside-1_127_280" fill="white">
<path d="M0 0H1190V1684H0V0Z"/>
</mask>
<g clip-path="url(#paint0_diamond_127_280_clip_path)" data-figma-skip-parse="true" mask="url(#path-1-inside-1_127_280)"><g transform="matrix(0.5375 1.343 -1.343 0.5375 595 842)"><rect x="0" y="0" width="721.985" height="626.906" fill="url(#paint0_diamond_127_280)" opacity="1" shape-rendering="crispEdges"/><rect x="0" y="0" width="721.985" height="626.906" transform="scale(1 -1)" fill="url(#paint0_diamond_127_280)" opacity="1" shape-rendering="crispEdges"/><rect x="0" y="0" width="721.985" height="626.906" transform="scale(-1 1)" fill="url(#paint0_diamond_127_280)" opacity="1" shape-rendering="crispEdges"/><rect x="0" y="0" width="721.985" height="626.906" transform="scale(-1)" fill="url(#paint0_diamond_127_280)" opacity="1" shape-rendering="crispEdges"/></g></g><path d="M0 0V-32H-32V0H0ZM1190 0H1222V-32H1190V0ZM1190 1684V1716H1222V1684H1190ZM0 1684H-32V1716H0V1684ZM0 0V32H1190V0V-32H0V0ZM1190 0H1158V1684H1190H1222V0H1190ZM1190 1684V1652H0V1684V1716H1190V1684ZM0 1684H32V0H0H-32V1684H0Z" data-figma-gradient-fill="{&#34;type&#34;:&#34;GRADIENT_DIAMOND&#34;,&#34;stops&#34;:[{&#34;color&#34;:{&#34;r&#34;:0.18823529779911041,&#34;g&#34;:0.0,&#34;b&#34;:0.0,&#34;a&#34;:1.0},&#34;position&#34;:0.0},{&#34;color&#34;:{&#34;r&#34;:0.93333333730697632,&#34;g&#34;:0.0,&#34;b&#34;:0.0,&#34;a&#34;:1.0},&#34;position&#34;:0.21153846383094788},{&#34;color&#34;:{&#34;r&#34;:0.93333333730697632,&#34;g&#34;:0.93333333730697632,&#34;b&#34;:0.0,&#34;a&#34;:1.0},&#34;position&#34;:0.39903846383094788},{&#34;color&#34;:{&#34;r&#34;:0.13333334028720856,&#34;g&#34;:0.93333333730697632,&#34;b&#34;:0.13333334028720856,&#34;a&#34;:1.0},&#34;position&#34;:0.57211536169052124},{&#34;color&#34;:{&#34;r&#34;:0.20000000298023224,&#34;g&#34;:0.20000000298023224,&#34;b&#34;:1.0,&#34;a&#34;:1.0},&#34;position&#34;:0.76442307233810425},{&#34;color&#34;:{&#34;r&#34;:1.0,&#34;g&#34;:1.0,&#34;b&#34;:1.0,&#34;a&#34;:1.0},&#34;position&#34;:0.90865385532379150}],&#34;stopsVar&#34;:[{&#34;color&#34;:{&#34;r&#34;:0.18823529779911041,&#34;g&#34;:0.0,&#34;b&#34;:0.0,&#34;a&#34;:1.0},&#34;position&#34;:0.0},{&#34;color&#34;:{&#34;r&#34;:0.93333333730697632,&#34;g&#34;:0.0,&#34;b&#34;:0.0,&#34;a&#34;:1.0},&#34;position&#34;:0.21153846383094788},{&#34;color&#34;:{&#34;r&#34;:0.93333333730697632,&#34;g&#34;:0.93333333730697632,&#34;b&#34;:0.0,&#34;a&#34;:1.0},&#34;position&#34;:0.39903846383094788},{&#34;color&#34;:{&#34;r&#34;:0.13333334028720856,&#34;g&#34;:0.93333333730697632,&#34;b&#34;:0.13333334028720856,&#34;a&#34;:1.0},&#34;position&#34;:0.57211536169052124},{&#34;color&#34;:{&#34;r&#34;:0.20000000298023224,&#34;g&#34;:0.20000000298023224,&#34;b&#34;:1.0,&#34;a&#34;:1.0},&#34;position&#34;:0.76442307233810425},{&#34;color&#34;:{&#34;r&#34;:1.0,&#34;g&#34;:1.0,&#34;b&#34;:1.0,&#34;a&#34;:1.0},&#34;position&#34;:0.90865385532379150}],&#34;transform&#34;:{&#34;m00&#34;:1075.0,&#34;m01&#34;:-2686.0,&#34;m02&#34;:1400.50,&#34;m10&#34;:2686.0002441406250,&#34;m11&#34;:1075.0,&#34;m12&#34;:-1038.5001220703125},&#34;opacity&#34;:1.0,&#34;blendMode&#34;:&#34;NORMAL&#34;,&#34;visible&#34;:true}" mask="url(#path-1-inside-1_127_280)"/>
<path d="M508.899 1673V1662.66H512.978C513.762 1662.66 514.43 1662.81 514.982 1663.11C515.534 1663.41 515.955 1663.82 516.244 1664.35C516.537 1664.87 516.683 1665.48 516.683 1666.16C516.683 1666.85 516.535 1667.46 516.239 1667.98C515.943 1668.51 515.514 1668.92 514.952 1669.21C514.393 1669.5 513.717 1669.65 512.922 1669.65H510.322V1667.9H512.569C512.99 1667.9 513.336 1667.82 513.609 1667.68C513.885 1667.53 514.09 1667.33 514.225 1667.07C514.363 1666.81 514.432 1666.5 514.432 1666.16C514.432 1665.82 514.363 1665.52 514.225 1665.27C514.09 1665.01 513.885 1664.81 513.609 1664.66C513.333 1664.52 512.983 1664.45 512.559 1664.45H511.085V1673H508.899ZM527.605 1667.83C527.605 1668.96 527.391 1669.92 526.964 1670.71C526.539 1671.5 525.961 1672.1 525.227 1672.52C524.497 1672.93 523.675 1673.14 522.763 1673.14C521.844 1673.14 521.02 1672.93 520.289 1672.52C519.559 1672.1 518.982 1671.49 518.558 1670.7C518.134 1669.91 517.922 1668.95 517.922 1667.83C517.922 1666.7 518.134 1665.74 518.558 1664.95C518.982 1664.16 519.559 1663.56 520.289 1663.15C521.02 1662.73 521.844 1662.52 522.763 1662.52C523.675 1662.52 524.497 1662.73 525.227 1663.15C525.961 1663.56 526.539 1664.16 526.964 1664.95C527.391 1665.74 527.605 1666.7 527.605 1667.83ZM525.388 1667.83C525.388 1667.1 525.279 1666.48 525.06 1665.98C524.845 1665.48 524.54 1665.1 524.146 1664.84C523.753 1664.58 523.292 1664.45 522.763 1664.45C522.235 1664.45 521.774 1664.58 521.38 1664.84C520.986 1665.1 520.68 1665.48 520.461 1665.98C520.246 1666.48 520.138 1667.1 520.138 1667.83C520.138 1668.56 520.246 1669.18 520.461 1669.68C520.68 1670.18 520.986 1670.56 521.38 1670.82C521.774 1671.08 522.235 1671.21 522.763 1671.21C523.292 1671.21 523.753 1671.08 524.146 1670.82C524.54 1670.56 524.845 1670.18 525.06 1669.68C525.279 1669.18 525.388 1668.56 525.388 1667.83ZM534.833 1665.63C534.793 1665.23 534.619 1664.91 534.313 1664.69C534.007 1664.46 533.591 1664.35 533.066 1664.35C532.709 1664.35 532.408 1664.4 532.162 1664.5C531.917 1664.6 531.728 1664.73 531.597 1664.91C531.469 1665.08 531.405 1665.28 531.405 1665.5C531.398 1665.69 531.437 1665.85 531.521 1665.99C531.609 1666.13 531.728 1666.25 531.88 1666.35C532.031 1666.44 532.206 1666.53 532.405 1666.6C532.603 1666.67 532.815 1666.73 533.041 1666.79L533.97 1667.01C534.421 1667.11 534.835 1667.24 535.212 1667.41C535.589 1667.58 535.915 1667.79 536.191 1668.03C536.467 1668.28 536.681 1668.57 536.832 1668.9C536.987 1669.23 537.066 1669.62 537.069 1670.05C537.066 1670.68 536.905 1671.23 536.585 1671.69C536.268 1672.15 535.811 1672.51 535.212 1672.77C534.616 1673.02 533.897 1673.15 533.056 1673.15C532.221 1673.15 531.494 1673.02 530.875 1672.76C530.259 1672.51 529.778 1672.13 529.431 1671.63C529.088 1671.12 528.908 1670.5 528.891 1669.75H531.006C531.03 1670.1 531.129 1670.39 531.304 1670.62C531.482 1670.85 531.72 1671.02 532.016 1671.14C532.315 1671.26 532.654 1671.31 533.031 1671.31C533.401 1671.31 533.722 1671.26 533.995 1671.15C534.271 1671.04 534.485 1670.89 534.636 1670.7C534.788 1670.51 534.863 1670.29 534.863 1670.04C534.863 1669.81 534.794 1669.61 534.656 1669.46C534.522 1669.3 534.323 1669.16 534.061 1669.05C533.801 1668.94 533.483 1668.84 533.106 1668.75L531.981 1668.47C531.109 1668.25 530.421 1667.92 529.916 1667.47C529.411 1667.02 529.16 1666.41 529.163 1665.65C529.16 1665.02 529.327 1664.48 529.663 1664.01C530.003 1663.54 530.469 1663.18 531.062 1662.91C531.654 1662.65 532.327 1662.52 533.081 1662.52C533.848 1662.52 534.518 1662.65 535.09 1662.91C535.666 1663.18 536.114 1663.54 536.433 1664.01C536.753 1664.48 536.918 1665.02 536.928 1665.63H534.833ZM538.146 1664.46V1662.66H546.638V1664.46H543.472V1673H541.311V1664.46H538.146ZM548.036 1673V1662.66H555.003V1664.46H550.222V1666.93H554.645V1668.73H550.222V1671.2H555.023V1673H548.036ZM556.741 1673V1662.66H560.82C561.601 1662.66 562.268 1662.8 562.819 1663.08C563.375 1663.36 563.797 1663.75 564.087 1664.26C564.379 1664.76 564.526 1665.35 564.526 1666.04C564.526 1666.72 564.378 1667.32 564.082 1667.81C563.785 1668.3 563.356 1668.68 562.794 1668.94C562.236 1669.2 561.559 1669.33 560.765 1669.33H558.033V1667.58H560.411C560.829 1667.58 561.175 1667.52 561.451 1667.41C561.727 1667.29 561.933 1667.12 562.067 1666.89C562.205 1666.66 562.274 1666.38 562.274 1666.04C562.274 1665.69 562.205 1665.41 562.067 1665.17C561.933 1664.93 561.726 1664.76 561.446 1664.63C561.17 1664.51 560.822 1664.45 560.401 1664.45H558.927V1673H556.741ZM562.325 1668.29L564.894 1673H562.481L559.967 1668.29H562.325ZM573.026 1673H569.361V1662.66H573.057C574.097 1662.66 574.992 1662.87 575.742 1663.28C576.493 1663.69 577.07 1664.28 577.474 1665.05C577.881 1665.82 578.085 1666.75 578.085 1667.82C578.085 1668.9 577.881 1669.82 577.474 1670.6C577.07 1671.37 576.49 1671.97 575.732 1672.38C574.978 1672.79 574.076 1673 573.026 1673ZM571.547 1671.13H572.935C573.582 1671.13 574.125 1671.01 574.566 1670.78C575.01 1670.55 575.344 1670.19 575.566 1669.71C575.791 1669.22 575.904 1668.59 575.904 1667.82C575.904 1667.06 575.791 1666.43 575.566 1665.95C575.344 1665.46 575.012 1665.11 574.571 1664.88C574.13 1664.65 573.587 1664.53 572.941 1664.53H571.547V1671.13ZM579.704 1673V1662.66H586.671V1664.46H581.89V1666.93H586.313V1668.73H581.89V1671.2H586.691V1673H579.704ZM594.018 1665.63C593.978 1665.23 593.804 1664.91 593.498 1664.69C593.192 1664.46 592.776 1664.35 592.251 1664.35C591.894 1664.35 591.593 1664.4 591.347 1664.5C591.102 1664.6 590.913 1664.73 590.782 1664.91C590.654 1665.08 590.59 1665.28 590.59 1665.5C590.583 1665.69 590.622 1665.85 590.706 1665.99C590.794 1666.13 590.913 1666.25 591.065 1666.35C591.216 1666.44 591.391 1666.53 591.59 1666.6C591.788 1666.67 592 1666.73 592.226 1666.79L593.155 1667.01C593.606 1667.11 594.02 1667.24 594.397 1667.41C594.774 1667.58 595.1 1667.79 595.376 1668.03C595.652 1668.28 595.866 1668.57 596.017 1668.9C596.172 1669.23 596.251 1669.62 596.255 1670.05C596.251 1670.68 596.09 1671.23 595.77 1671.69C595.454 1672.15 594.996 1672.51 594.397 1672.77C593.801 1673.02 593.082 1673.15 592.241 1673.15C591.406 1673.15 590.679 1673.02 590.06 1672.76C589.444 1672.51 588.963 1672.13 588.616 1671.63C588.273 1671.12 588.093 1670.5 588.076 1669.75H590.191C590.215 1670.1 590.314 1670.39 590.489 1670.62C590.668 1670.85 590.905 1671.02 591.201 1671.14C591.501 1671.26 591.839 1671.31 592.216 1671.31C592.586 1671.31 592.907 1671.26 593.18 1671.15C593.456 1671.04 593.67 1670.89 593.821 1670.7C593.973 1670.51 594.048 1670.29 594.048 1670.04C594.048 1669.81 593.979 1669.61 593.841 1669.46C593.707 1669.3 593.508 1669.16 593.246 1669.05C592.987 1668.94 592.669 1668.84 592.292 1668.75L591.166 1668.47C590.294 1668.25 589.606 1667.92 589.101 1667.47C588.596 1667.02 588.345 1666.41 588.349 1665.65C588.345 1665.02 588.512 1664.48 588.848 1664.01C589.188 1663.54 589.655 1663.18 590.247 1662.91C590.839 1662.65 591.512 1662.52 592.266 1662.52C593.034 1662.52 593.703 1662.65 594.276 1662.91C594.851 1663.18 595.299 1663.54 595.619 1664.01C595.938 1664.48 596.103 1665.02 596.113 1665.63H594.018ZM599.911 1662.66V1673H597.725V1662.66H599.911ZM608.566 1666C608.495 1665.76 608.396 1665.54 608.268 1665.35C608.14 1665.16 607.983 1665 607.798 1664.87C607.616 1664.73 607.408 1664.63 607.172 1664.56C606.94 1664.49 606.682 1664.45 606.4 1664.45C605.871 1664.45 605.407 1664.58 605.006 1664.85C604.609 1665.11 604.299 1665.49 604.077 1665.99C603.855 1666.49 603.744 1667.1 603.744 1667.82C603.744 1668.54 603.854 1669.15 604.072 1669.66C604.291 1670.16 604.601 1670.55 605.001 1670.81C605.402 1671.08 605.875 1671.21 606.42 1671.21C606.915 1671.21 607.337 1671.12 607.687 1670.95C608.04 1670.77 608.31 1670.52 608.495 1670.19C608.683 1669.87 608.778 1669.49 608.778 1669.05L609.222 1669.11H606.556V1667.47H610.883V1668.77C610.883 1669.68 610.691 1670.46 610.307 1671.11C609.924 1671.76 609.395 1672.26 608.722 1672.62C608.049 1672.97 607.278 1673.14 606.41 1673.14C605.44 1673.14 604.589 1672.93 603.855 1672.5C603.122 1672.07 602.549 1671.46 602.139 1670.67C601.731 1669.87 601.528 1668.93 601.528 1667.84C601.528 1667 601.649 1666.26 601.891 1665.6C602.137 1664.94 602.48 1664.38 602.921 1663.92C603.362 1663.47 603.875 1663.12 604.461 1662.88C605.047 1662.64 605.681 1662.52 606.364 1662.52C606.95 1662.52 607.495 1662.61 608 1662.78C608.505 1662.95 608.953 1663.18 609.343 1663.49C609.737 1663.8 610.058 1664.17 610.307 1664.6C610.556 1665.02 610.716 1665.49 610.787 1666H608.566ZM621.173 1662.66V1673H619.285L614.787 1666.49H614.711V1673H612.525V1662.66H614.443L618.906 1669.16H618.997V1662.66H621.173ZM627.755 1673H626.442L630.239 1662.66H631.531L635.328 1673H634.015L630.925 1664.3H630.845L627.755 1673ZM628.24 1668.96H633.53V1670.07H628.24V1668.96ZM636.938 1673V1662.66H638.19V1671.89H642.996V1673H636.938ZM646.187 1662.66V1673H644.935V1662.66H646.187ZM654.352 1665.25C654.291 1664.73 654.046 1664.34 653.615 1664.05C653.184 1663.77 652.656 1663.63 652.03 1663.63C651.572 1663.63 651.171 1663.7 650.828 1663.85C650.488 1664 650.222 1664.2 650.03 1664.46C649.842 1664.72 649.748 1665.02 649.748 1665.35C649.748 1665.62 649.813 1665.86 649.945 1666.06C650.079 1666.25 650.251 1666.42 650.459 1666.55C650.668 1666.68 650.887 1666.78 651.116 1666.87C651.345 1666.95 651.555 1667.01 651.747 1667.06L652.797 1667.35C653.066 1667.42 653.366 1667.51 653.696 1667.64C654.029 1667.76 654.347 1667.93 654.65 1668.15C654.956 1668.36 655.208 1668.63 655.407 1668.97C655.606 1669.3 655.705 1669.71 655.705 1670.19C655.705 1670.75 655.559 1671.26 655.266 1671.71C654.976 1672.16 654.552 1672.52 653.993 1672.78C653.438 1673.05 652.763 1673.18 651.969 1673.18C651.229 1673.18 650.587 1673.06 650.046 1672.82C649.507 1672.58 649.083 1672.25 648.773 1671.82C648.467 1671.4 648.294 1670.9 648.253 1670.33H649.546C649.579 1670.72 649.711 1671.05 649.939 1671.3C650.172 1671.56 650.465 1671.74 650.818 1671.87C651.175 1671.99 651.558 1672.05 651.969 1672.05C652.447 1672.05 652.876 1671.97 653.256 1671.82C653.637 1671.66 653.938 1671.44 654.16 1671.16C654.382 1670.88 654.493 1670.55 654.493 1670.17C654.493 1669.83 654.397 1669.55 654.205 1669.33C654.014 1669.12 653.761 1668.94 653.448 1668.81C653.135 1668.68 652.797 1668.56 652.433 1668.46L651.161 1668.09C650.353 1667.86 649.714 1667.53 649.243 1667.1C648.772 1666.67 648.536 1666.1 648.536 1665.41C648.536 1664.83 648.692 1664.32 649.006 1663.89C649.322 1663.46 649.746 1663.12 650.278 1662.88C650.813 1662.64 651.41 1662.52 652.07 1662.52C652.736 1662.52 653.329 1662.64 653.847 1662.88C654.365 1663.11 654.776 1663.44 655.079 1663.85C655.385 1664.26 655.547 1664.72 655.564 1665.25H654.352ZM658.188 1673H656.875L660.671 1662.66H661.964L665.76 1673H664.448L661.358 1664.3H661.277L658.188 1673ZM658.672 1668.96H663.963V1670.07H658.672V1668.96ZM671.793 1662.66L674.863 1671.36H674.984L678.054 1662.66H679.366L675.57 1673H674.277L670.481 1662.66H671.793ZM689.215 1667.83C689.215 1668.92 689.018 1669.86 688.624 1670.66C688.23 1671.45 687.69 1672.06 687.003 1672.5C686.317 1672.93 685.532 1673.14 684.651 1673.14C683.769 1673.14 682.985 1672.93 682.298 1672.5C681.611 1672.06 681.071 1671.45 680.677 1670.66C680.284 1669.86 680.087 1668.92 680.087 1667.83C680.087 1666.74 680.284 1665.8 680.677 1665C681.071 1664.21 681.611 1663.6 682.298 1663.17C682.985 1662.73 683.769 1662.52 684.651 1662.52C685.532 1662.52 686.317 1662.73 687.003 1663.17C687.69 1663.6 688.23 1664.21 688.624 1665C689.018 1665.8 689.215 1666.74 689.215 1667.83ZM688.003 1667.83C688.003 1666.94 687.853 1666.18 687.554 1665.56C687.257 1664.95 686.855 1664.48 686.347 1664.17C685.842 1663.85 685.277 1663.69 684.651 1663.69C684.025 1663.69 683.458 1663.85 682.949 1664.17C682.444 1664.48 682.042 1664.95 681.743 1665.56C681.447 1666.18 681.298 1666.94 681.298 1667.83C681.298 1668.73 681.447 1669.48 681.743 1670.1C682.042 1670.71 682.444 1671.18 682.949 1671.5C683.458 1671.81 684.025 1671.97 684.651 1671.97C685.277 1671.97 685.842 1671.81 686.347 1671.5C686.855 1671.18 687.257 1670.71 687.554 1670.1C687.853 1669.48 688.003 1668.73 688.003 1667.83ZM691.32 1673V1662.66H694.813C695.621 1662.66 696.284 1662.8 696.802 1663.07C697.321 1663.35 697.704 1663.72 697.954 1664.2C698.203 1664.68 698.327 1665.22 698.327 1665.83C698.327 1666.44 698.203 1666.98 697.954 1667.45C697.704 1667.92 697.322 1668.29 696.808 1668.56C696.293 1668.83 695.635 1668.96 694.834 1668.96H692.006V1667.83H694.793C695.345 1667.83 695.789 1667.75 696.126 1667.59C696.466 1667.43 696.712 1667.2 696.863 1666.9C697.018 1666.6 697.095 1666.25 697.095 1665.83C697.095 1665.42 697.018 1665.06 696.863 1664.75C696.708 1664.44 696.461 1664.2 696.121 1664.03C695.781 1663.86 695.332 1663.77 694.773 1663.77H692.572V1673H691.32ZM696.187 1668.36L698.731 1673H697.277L694.773 1668.36H696.187ZM709.137 1667.83C709.137 1668.92 708.94 1669.86 708.547 1670.66C708.153 1671.45 707.613 1672.06 706.926 1672.5C706.239 1672.93 705.455 1673.14 704.573 1673.14C703.692 1673.14 702.907 1672.93 702.221 1672.5C701.534 1672.06 700.994 1671.45 700.6 1670.66C700.206 1669.86 700.01 1668.92 700.01 1667.83C700.01 1666.74 700.206 1665.8 700.6 1665C700.994 1664.21 701.534 1663.6 702.221 1663.17C702.907 1662.73 703.692 1662.52 704.573 1662.52C705.455 1662.52 706.239 1662.73 706.926 1663.17C707.613 1663.6 708.153 1664.21 708.547 1665C708.94 1665.8 709.137 1666.74 709.137 1667.83ZM707.926 1667.83C707.926 1666.94 707.776 1666.18 707.476 1665.56C707.18 1664.95 706.778 1664.48 706.27 1664.17C705.765 1663.85 705.199 1663.69 704.573 1663.69C703.947 1663.69 703.38 1663.85 702.872 1664.17C702.367 1664.48 701.965 1664.95 701.665 1665.56C701.369 1666.18 701.221 1666.94 701.221 1667.83C701.221 1668.73 701.369 1669.48 701.665 1670.1C701.965 1670.71 702.367 1671.18 702.872 1671.5C703.38 1671.81 703.947 1671.97 704.573 1671.97C705.199 1671.97 705.765 1671.81 706.27 1671.5C706.778 1671.18 707.18 1670.71 707.476 1670.1C707.776 1669.48 707.926 1668.73 707.926 1667.83ZM711.243 1673V1662.66H714.857C715.578 1662.66 716.172 1662.79 716.639 1663.03C717.107 1663.28 717.456 1663.61 717.684 1664.03C717.913 1664.44 718.028 1664.9 718.028 1665.41C718.028 1665.85 717.949 1666.22 717.791 1666.51C717.636 1666.8 717.43 1667.03 717.175 1667.19C716.922 1667.36 716.648 1667.49 716.352 1667.57V1667.67C716.668 1667.69 716.986 1667.8 717.306 1668C717.626 1668.2 717.893 1668.49 718.109 1668.87C718.324 1669.25 718.432 1669.71 718.432 1670.25C718.432 1670.77 718.314 1671.24 718.078 1671.65C717.843 1672.07 717.471 1672.39 716.963 1672.64C716.454 1672.88 715.793 1673 714.978 1673H711.243ZM712.495 1671.89H714.978C715.796 1671.89 716.377 1671.73 716.72 1671.41C717.067 1671.1 717.24 1670.71 717.24 1670.25C717.24 1669.9 717.151 1669.58 716.973 1669.28C716.794 1668.98 716.54 1668.75 716.21 1668.57C715.88 1668.39 715.49 1668.29 715.039 1668.29H712.495V1671.89ZM712.495 1667.2H714.817C715.194 1667.2 715.534 1667.13 715.837 1666.98C716.143 1666.83 716.385 1666.63 716.564 1666.36C716.745 1666.09 716.836 1665.77 716.836 1665.41C716.836 1664.95 716.678 1664.57 716.362 1664.25C716.045 1663.93 715.544 1663.77 714.857 1663.77H712.495V1667.2ZM720.489 1673V1662.66H726.729V1663.77H721.741V1667.26H726.406V1668.38H721.741V1671.89H726.81V1673H720.489ZM728.097 1662.66H729.531L732.398 1667.49H732.52L735.387 1662.66H736.821L733.085 1668.74V1673H731.833V1668.74L728.097 1662.66Z" fill="white"/>
</g>
<defs>
<clipPath id="paint0_diamond_127_280_clip_path"><path d="M0 0V-32H-32V0H0ZM1190 0H1222V-32H1190V0ZM1190 1684V1716H1222V1684H1190ZM0 1684H-32V1716H0V1684ZM0 0V32H1190V0V-32H0V0ZM1190 0H1158V1684H1190H1222V0H1190ZM1190 1684V1652H0V1684V1716H1190V1684ZM0 1684H32V0H0H-32V1684H0Z" mask="url(#path-1-inside-1_127_280)"/></clipPath><linearGradient id="paint0_diamond_127_280" x1="0" y1="0" x2="500" y2="500" gradientUnits="userSpaceOnUse">
<stop stop-color="#300000"/>
<stop offset="0.211538" stop-color="#EE0000"/>
<stop offset="0.399038" stop-color="#EEEE00"/>
<stop offset="0.572115" stop-color="#22EE22"/>
<stop offset="0.764423" stop-color="#3333FF"/>
<stop offset="0.908654" stop-color="white"/>
</linearGradient>
<clipPath id="clip0_127_280">
<rect width="1190" height="1684" fill="white"/>
</clipPath>
</defs>
</svg>
